External Loads File
version=1
nRows=62
nColumns=13
Range=5.000000e-03-10 seconds
endheader
time 	forceRightX 	forceRightY 	forceRightZ 	pointRightX 	pointRightY 	pointRightZ 	forceLeftX 	forceLeftY 	forceLeftZ 	pointLeftX 	pointLeftY 	pointLeftZ 		
0.005000 44.722692 135.788432 -0.000000 0.327791 0.417784 -0.126390 44.945305 170.113964 -0.000000 0.042124 0.221727 -0.360898
0.010000 44.543921 136.125749 -0.000000 0.327749 0.417792 -0.126400 45.429727 170.900944 -0.000000 0.042131 0.221701 -0.360900
0.015000 44.356301 136.474923 -0.000000 0.327711 0.417807 -0.126407 45.776271 171.545236 -0.000000 0.042132 0.221694 -0.360909
0.020000 44.390689 136.759608 -0.000000 0.328245 0.417522 -0.127754 46.174319 171.863244 -0.000000 0.042126 0.221699 -0.360911
0.025000 41.408800 138.000230 -0.000000 0.328119 0.417898 -0.127741 42.486365 172.852783 -0.000000 0.041946 0.213666 -0.360450
0.030000 43.874246 137.571706 -0.000000 0.328088 0.417895 -0.127745 45.287226 171.805316 -0.000000 0.042110 0.221681 -0.360834
0.035000 43.739971 137.969778 -0.000000 0.328068 0.417909 -0.127734 44.545505 171.370724 -0.000000 0.042098 0.221690 -0.360837
0.040000 43.644328 138.350441 -0.000000 0.328058 0.417907 -0.127717 43.701386 170.790168 -0.000000 0.042085 0.221706 -0.360839
0.045000 43.597571 138.687953 -0.000000 0.328102 0.417864 -0.127724 42.912595 170.148879 -0.000000 0.042069 0.221729 -0.360833
0.050000 43.565740 138.991131 -0.000000 0.328120 0.417839 -0.127732 42.234926 169.540855 -0.000000 0.042069 0.221761 -0.360855
0.055000 43.585603 139.256321 -0.000000 0.328147 0.417820 -0.127730 41.754379 169.026056 -0.000000 0.042042 0.221791 -0.360867
0.060000 43.680996 139.468583 -0.000000 0.328175 0.417777 -0.127715 41.509571 168.638527 -0.000000 0.041998 0.221841 -0.360877
0.065000 43.811913 139.612767 -0.000000 0.328132 0.417709 -0.127679 41.452039 168.390804 -0.000000 0.041953 0.221900 -0.360875
0.070000 43.989185 139.649074 -0.000000 0.328205 0.417665 -0.127670 41.590412 168.248430 -0.000000 0.041832 0.221968 -0.360760
0.075000 44.097509 139.573347 -0.000000 0.328266 0.417616 -0.127665 41.779258 168.193871 -0.000000 0.041782 0.222010 -0.360766
0.080000 44.108758 139.357100 -0.000000 0.328311 0.417564 -0.127600 41.987506 168.177112 -0.000000 0.041726 0.222065 -0.360775
0.085000 43.973299 139.001231 -0.000000 0.328378 0.417502 -0.127590 42.183551 168.177048 -0.000000 0.041680 0.222103 -0.360774
0.090000 43.671319 138.540113 -0.000000 0.328447 0.417469 -0.127576 42.381518 168.208436 -0.000000 0.041647 0.222144 -0.360778
0.095000 43.270154 138.030967 -0.000000 0.328498 0.417422 -0.127558 42.666732 168.298072 -0.000000 0.041611 0.222199 -0.360766
0.100000 42.839963 137.561572 -0.000000 0.328546 0.417383 -0.127583 43.075878 168.488284 -0.000000 0.041587 0.222229 -0.360774
0.105000 42.491821 137.200880 -0.000000 0.328637 0.417366 -0.128049 43.660271 168.800611 -0.000000 0.041568 0.222246 -0.360771
0.110000 42.272571 137.005020 -0.000000 0.328634 0.417348 -0.127980 44.385339 169.249634 -0.000000 0.041567 0.222249 -0.360765
0.115000 42.243938 136.981608 -0.000000 0.328664 0.417344 -0.128030 45.255719 169.813975 -0.000000 0.041634 0.222257 -0.360873
0.120000 42.394944 137.112381 -0.000000 0.328603 0.417360 -0.127581 46.224624 170.471498 -0.000000 0.041643 0.222238 -0.360883
0.125000 42.734854 137.330497 -0.000000 0.328618 0.417366 -0.127990 47.320154 171.179419 -0.000000 0.041675 0.222242 -0.360879
0.130000 43.117429 137.595677 -0.000000 0.328566 0.417404 -0.127545 48.424258 171.943020 -0.000000 0.041708 0.222195 -0.360885
0.135000 43.516436 137.833846 -0.000000 0.328534 0.417430 -0.127576 49.578078 172.718808 -0.000000 0.041748 0.222164 -0.360880
0.140000 43.833692 138.014054 -0.000000 0.328494 0.417459 -0.127581 50.683433 173.472101 -0.000000 0.041796 0.222111 -0.360876
0.145000 44.032482 138.116468 -0.000000 0.328452 0.417528 -0.127570 51.628982 174.132521 -0.000000 0.041850 0.222070 -0.360868
0.150000 44.146739 138.124834 -0.000000 0.328441 0.417557 -0.128004 52.330657 174.602016 -0.000000 0.041900 0.222018 -0.360870
0.155000 44.165608 138.042549 -0.000000 0.328421 0.417587 -0.128010 52.670979 174.812575 -0.000000 0.041955 0.221974 -0.360873
0.160000 44.089590 137.864647 -0.000000 0.328376 0.417613 -0.127643 52.614438 174.719041 -0.000000 0.042002 0.221934 -0.360866
0.165000 43.902744 137.596229 -0.000000 0.328322 0.417671 -0.127576 52.150086 174.319846 -0.000000 0.042042 0.221878 -0.360873
0.170000 43.666162 137.236050 -0.000000 0.328325 0.417682 -0.127643 51.375955 173.621846 -0.000000 0.042085 0.221825 -0.360866
0.175000 43.390839 136.829602 -0.000000 0.328327 0.417722 -0.127646 50.311434 172.679471 -0.000000 0.042115 0.221796 -0.360877
0.180000 43.140000 136.432831 -0.000000 0.328321 0.417755 -0.127662 49.021423 171.548495 -0.000000 0.042143 0.221766 -0.360871
0.185000 42.996659 136.091726 -0.000000 0.328325 0.417749 -0.127639 47.611507 170.292682 -0.000000 0.042157 0.221740 -0.360877
0.190000 42.976831 135.840833 -0.000000 0.328334 0.417757 -0.127627 46.153693 168.998536 -0.000000 0.042178 0.221728 -0.360870
0.195000 43.091649 135.680867 -0.000000 0.328358 0.417760 -0.127585 44.752758 167.736092 -0.000000 0.042183 0.221712 -0.360870
0.200000 43.327545 135.593105 -0.000000 0.328399 0.417757 -0.127588 43.504589 166.571637 -0.000000 0.042184 0.221716 -0.360874
0.205000 43.644069 135.545253 -0.000000 0.328460 0.417722 -0.128015 42.502421 165.586490 -0.000000 0.042185 0.221698 -0.360874
0.210000 43.975327 135.500459 -0.000000 0.328510 0.417729 -0.128004 41.828854 164.871798 -0.000000 0.042181 0.221716 -0.360873
0.215000 44.279637 135.415107 -0.000000 0.328562 0.417717 -0.128038 41.574428 164.481747 -0.000000 0.042171 0.221740 -0.360875
0.220000 44.482679 135.272195 -0.000000 0.328611 0.417707 -0.127804 41.734680 164.433115 -0.000000 0.042145 0.221725 -0.360871
0.225000 44.586981 135.061016 -0.000000 0.328649 0.417675 -0.127809 42.334737 164.689658 -0.000000 0.042137 0.221754 -0.360873
0.230000 44.552638 134.814812 -0.000000 0.328666 0.417679 -0.127790 43.285765 165.218936 -0.000000 0.042128 0.221754 -0.360875
0.235000 44.419112 134.547151 -0.000000 0.328676 0.417675 -0.127793 44.538672 165.947559 -0.000000 0.042135 0.221759 -0.360871
0.240000 44.212339 134.264416 -0.000000 0.328714 0.417673 -0.127802 45.991910 166.787583 -0.000000 0.042122 0.221765 -0.360857
0.245000 43.918054 133.977196 -0.000000 0.328698 0.417670 -0.127785 47.487662 167.669578 -0.000000 0.042130 0.221764 -0.360859
0.250000 43.576527 133.685627 -0.000000 0.328700 0.417692 -0.127782 48.944207 168.533097 -0.000000 0.042136 0.221757 -0.360838
0.255000 43.247459 133.409239 -0.000000 0.328692 0.417686 -0.127797 50.305505 169.342196 -0.000000 0.042142 0.221741 -0.360852
0.260000 42.993651 133.190264 -0.000000 0.328667 0.417699 -0.127772 51.509723 170.076638 -0.000000 0.042144 0.221739 -0.360856
0.265000 42.876940 133.067444 -0.000000 0.328652 0.417728 -0.127762 52.503390 170.708730 -0.000000 0.042151 0.221732 -0.360855
0.270000 42.926332 133.059968 -0.000000 0.328623 0.417734 -0.127779 53.242042 171.204238 -0.000000 0.042164 0.221712 -0.360850
0.275000 43.134925 133.164834 -0.000000 0.328603 0.417762 -0.127788 53.700152 171.531706 -0.000000 0.042170 0.221716 -0.360861
0.280000 43.452770 133.370444 -0.000000 0.328561 0.417786 -0.127777 53.848374 171.680367 -0.000000 0.042179 0.221695 -0.360851
0.285000 43.858429 133.641816 -0.000000 0.328531 0.417796 -0.127785 53.741933 171.643718 -0.000000 0.042186 0.221692 -0.360851
0.290000 44.291594 133.944977 -0.000000 0.328511 0.417791 -0.127781 53.430843 171.448010 -0.000000 0.042180 0.221693 -0.360851
0.295000 44.666917 134.247665 -0.000000 0.328501 0.417810 -0.127788 52.942135 171.132167 -0.000000 0.042189 0.221686 -0.360849
0.300000 44.962152 134.502884 -0.000000 0.328481 0.417784 -0.127769 52.338867 170.698995 -0.000000 0.042198 0.221692 -0.360853
0.305000 45.154275 134.684399 -0.000000 0.328545 0.417787 -0.127752 51.619889 170.148940 -0.000000 0.042192 0.221705 -0.360846
0.310000 45.251021 134.782772 -0.000000 0.328564 0.417762 -0.127771 50.789442 169.488441 -0.000000 0.042174 0.221740 -0.360848
